HIERARCHY
ROOT hip
{
  OFFSET 0 0 0
  CHANNELS 6 Xposition Yposition Zposition Zrotation Yrotation Xrotation
  JOINT abdomen
  {
    OFFSET 0 20.6881 -0.73152
    CHANNELS 3 Zrotation Xrotation Yrotation
    JOINT chest
    {
      OFFSET 0 11.7043 -0.48768
      CHANNELS 3 Zrotation Xrotation Yrotation
      JOINT neck
      {
        OFFSET 0 22.1894 -2.19456
        CHANNELS 3 Zrotation Xrotation Yrotation
        JOINT head
        {
          OFFSET -0.24384 7.07133 1.2192
          CHANNELS 3 Zrotation Xrotation Yrotation
          JOINT leftEye
          {
            OFFSET 4.14528 8.04674 8.04672
            CHANNELS 3 Zrotation Xrotation Yrotation
            End Site
            {
              OFFSET 1 0 0
            }
          }
          JOINT rightEye
          {
            OFFSET -3.6576 8.04674 8.04672
            CHANNELS 3 Zrotation Xrotation Yrotation
            End Site
            {
              OFFSET 1 0 0
            }
          }
        }
      }
      JOINT rCollar
      {
        OFFSET -2.68224 19.2634 -4.8768
        CHANNELS 3 Zrotation Xrotation Yrotation
        JOINT rShldr
        {
          OFFSET -8.77824 -1.95073 1.46304
          CHANNELS 3 Zrotation Xrotation Yrotation
          JOINT rForeArm
          {
            OFFSET -28.1742 -1.7115 0.48768
            CHANNELS 3 Zrotation Xrotation Yrotation
            JOINT rHand
            {
              OFFSET -22.5879 0.773209 7.07136
              CHANNELS 3 Zrotation Xrotation Yrotation
              JOINT rThumb1
              {
                OFFSET -1.2192 -0.487915 3.41376
                CHANNELS 3 Zrotation Xrotation Yrotation
                JOINT rThumb2
                {
                  OFFSET -3.37035 -0.52449 3.41376
                  CHANNELS 3 Zrotation Xrotation Yrotation
                  End Site
                  {
                    OFFSET -1.78271 -1.18214 1.43049
                  }
                }
              }
              JOINT rIndex1
              {
                OFFSET -7.75947 0.938293 5.60832
                CHANNELS 3 Zrotation Xrotation Yrotation
                JOINT rIndex2
                {
                  OFFSET -2.54057 -0.884171 1.56538
                  CHANNELS 3 Zrotation Xrotation Yrotation
                  End Site
                  {
                    OFFSET -1.62519 -0.234802 1.16502
                  }
                }
              }
              JOINT rMid1
              {
                OFFSET -8.24714 1.18213 3.41376
                CHANNELS 3 Zrotation Xrotation Yrotation
                JOINT rMid2
                {
                  OFFSET -3.10165 -0.590103 1.0647
                  CHANNELS 3 Zrotation Xrotation Yrotation
                  End Site
                  {
                    OFFSET -2.48547 -0.328903 0.83742
                  }
                }
              }
              JOINT rRing1
              {
                OFFSET -8.82822 0.546677 1.51678
                CHANNELS 3 Zrotation Xrotation Yrotation
                JOINT rRing2
                {
                  OFFSET -2.60934 -0.819778 -0.0198488
                  CHANNELS 3 Zrotation Xrotation Yrotation
                  End Site
                  {
                    OFFSET -2.33842 -0.294052 0.168128
                  }
                }
              }
              JOINT rPinky1
              {
                OFFSET -8.27202 -0.0477905 -0.4584
                CHANNELS 3 Zrotation Xrotation Yrotation
                JOINT rPinky2
                {
                  OFFSET -1.82734 -0.647385 -0.700984
                  CHANNELS 3 Zrotation Xrotation Yrotation
                  End Site
                  {
                    OFFSET -1.69225 -0.51767 -0.607171
                  }
                }
              }
            }
          }
        }
      }
      JOINT lCollar
      {
        OFFSET 2.68224 19.2634 -4.8768
        CHANNELS 3 Zrotation Xrotation Yrotation
        JOINT lShldr
        {
          OFFSET 8.77824 -1.95073 1.46304
          CHANNELS 3 Zrotation Xrotation Yrotation
          JOINT lForeArm
          {
            OFFSET 28.1742 -1.7115 0.48768
            CHANNELS 3 Zrotation Xrotation Yrotation
            JOINT lHand
            {
              OFFSET 22.5879 0.773209 7.07136
              CHANNELS 3 Zrotation Xrotation Yrotation
              JOINT lThumb1
              {
                OFFSET 1.2192 -0.487915 3.41376
                CHANNELS 3 Zrotation Xrotation Yrotation
                JOINT lThumb2
                {
                  OFFSET 3.37035 -0.52449 3.41376
                  CHANNELS 3 Zrotation Xrotation Yrotation
                  End Site
                  {
                    OFFSET 1.78271 -1.18214 1.43049
                  }
                }
              }
              JOINT lIndex1
              {
                OFFSET 7.75947 0.938293 5.60832
                CHANNELS 3 Zrotation Xrotation Yrotation
                JOINT lIndex2
                {
                  OFFSET 2.54057 -0.884171 1.56538
                  CHANNELS 3 Zrotation Xrotation Yrotation
                  End Site
                  {
                    OFFSET 1.62519 -0.234802 1.16502
                  }
                }
              }
              JOINT lMid1
              {
                OFFSET 8.24714 1.18213 3.41376
                CHANNELS 3 Zrotation Xrotation Yrotation
                JOINT lMid2
                {
                  OFFSET 3.10165 -0.590103 1.0647
                  CHANNELS 3 Zrotation Xrotation Yrotation
                  End Site
                  {
                    OFFSET 2.48547 -0.328903 0.83742
                  }
                }
              }
              JOINT lRing1
              {
                OFFSET 8.82822 0.546677 1.51678
                CHANNELS 3 Zrotation Xrotation Yrotation
                JOINT lRing2
                {
                  OFFSET 2.60934 -0.819778 -0.0198488
                  CHANNELS 3 Zrotation Xrotation Yrotation
                  End Site
                  {
                    OFFSET 2.33842 -0.294052 0.168128
                  }
                }
              }
              JOINT lPinky1
              {
                OFFSET 8.27202 -0.0477905 -0.4584
                CHANNELS 3 Zrotation Xrotation Yrotation
                JOINT lPinky2
                {
                  OFFSET 1.82734 -0.647385 -0.700984
                  CHANNELS 3 Zrotation Xrotation Yrotation
                  End Site
                  {
                    OFFSET 1.69225 -0.51767 -0.607171
                  }
                }
              }
            }
          }
        }
      }
    }
  }
  JOINT rButtock
  {
    OFFSET -8.77824 4.35084 1.2192
    CHANNELS 3 Zrotation Xrotation Yrotation
    JOINT rThigh
    {
      OFFSET 0 -1.70687 -2.19456
      CHANNELS 3 Zrotation Xrotation Yrotation
      JOINT rShin
      {
        OFFSET 0 -36.8199 0.73152
        CHANNELS 3 Zrotation Xrotation Yrotation
        JOINT rFoot
        {
          OFFSET 0.73152 -45.1104 -5.12064
          CHANNELS 3 Zrotation Xrotation Yrotation
          End Site
          {
            OFFSET -1.1221 -3.69964 12.103
          }
        }
      }
    }
  }
  JOINT lButtock
  {
    OFFSET 8.77824 4.35084 1.2192
    CHANNELS 3 Zrotation Xrotation Yrotation
    JOINT lThigh
    {
      OFFSET 0 -1.70687 -2.19456
      CHANNELS 3 Zrotation Xrotation Yrotation
      JOINT lShin
      {
        OFFSET 0 -36.8199 0.73152
        CHANNELS 3 Zrotation Xrotation Yrotation
        JOINT lFoot
        {
          OFFSET -0.73152 -45.1104 -5.12064
          CHANNELS 3 Zrotation Xrotation Yrotation
          End Site
          {
            OFFSET 1.1221 -3.69964 12.103
          }
        }
      }
    }
  }
}
MOTION
Frames:	4
Frame Time:	0.00833333
6.55331 85.3572 198.169 0.0 0.0 0.0 1.31605 -0.00470384 0.0362378 0.363463 -0.0035946 0.0629626 1.571e-14 0.0 -2.23633e-16 4.70064e-14 3.18055e-15 -6.74004e-16 -0.0 0.0 0.0 -0.0 0.0 0.0 7.85074e-15 -3.28072e-17 9.93923e-17 1.66214e-13 -5.34234e-16 -5.96354e-16 2.82672e-12 -8.65707e-13 -7.31528e-14 3.23553e-11 7.29739e-13 -3.84847e-13 7.6319e-11 -3.00778e-13 -9.7643e-13 1.3179e-10 -5.21611e-13 -1.69683e-12 7.63222e-11 -3.00562e-13 -9.92333e-13 7.73091 5.47488 0.417314 7.63189e-11 -3.01159e-13 -9.7643e-13 2.90554 0.965183 0.102902 7.63225e-11 -3.00662e-13 -9.78816e-13 10.2786 0.731801 0.0259123 7.63146e-11 -2.98575e-13 -9.70069e-13 2.22167 -0.733487 -0.20892 7.65498e-15 -3.28072e-17 -2.98177e-16 1.63469e-13 -5.34234e-16 -2.18663e-15 2.82871e-12 8.22372e-13 -6.36111e-14 3.23629e-11 -9.67883e-13 -3.68944e-13 7.63418e-11 -3.21427e-13 -9.63708e-13 1.31848e-10 -5.50236e-13 -1.6682e-12 7.63397e-11 -3.19646e-13 -9.60528e-13 -7.73091 5.47488 -0.417314 7.63429e-11 -3.21832e-13 -9.66889e-13 -2.90554 0.965183 -0.102902 7.63385e-11 -3.21932e-13 -9.68479e-13 -10.2786 0.731801 -0.0259123 7.63486e-11 -3.20043e-13 -9.82791e-13 -2.22167 -0.733487 0.20892 -2.03217e-16 0.0 -3.88251e-19 1.46221 -6.13863 -0.13474 0.00180661 5.56149 0.0541931 -0.477911 0.57502 0.0659395 2.03217e-16 0.0 3.88251e-19 0.544698 -1.92085 0.00800528 0.00891035 -2.07861 0.0733838 0.452861 3.99724 -0.131543
7.64243 82.8948 186.259 177.141 -0.162 -177.963 0.483017 1.29115 -2.09235 0.868199 0.76004 -0.482328 0.916516 -3.56142 0.320453 -1.28472 6.9683 1.37368 -0.0 0.0 0.0 -0.0 0.0 0.0 8.06201e-15 -8.01105e-15 -1.69417e-14 20.5688 8.22509 -11.3166 -13.8189 -10.92 14.1822 0.00755413 1.95653 0.274427 1.3624e-10 -1.61237e-10 -5.54116e-11 2.35604e-10 -2.78695e-10 -9.65695e-11 1.36244e-10 -1.61238e-10 -5.54287e-11 7.73091 5.47488 0.417314 1.36241e-10 -1.6124e-10 -5.54106e-11 2.90554 0.965183 0.102902 1.36244e-10 -1.61239e-10 -5.54143e-11 10.2786 0.731801 0.0259123 1.36235e-10 -1.61237e-10 -5.54053e-11 2.22167 -0.733487 -0.20892 7.95312e-15 -8.01359e-15 -1.73292e-14 -20.3227 15.2189 2.61171 19.7489 -17.4802 -15.1803 -0.0828891 6.39393 -0.878529 -3.14649e-10 1.03692e-09 2.20103e-10 -5.39644e-10 1.80458e-09 3.87016e-10 -3.14651e-10 1.03692e-09 2.20105e-10 -7.73091 5.47488 -0.417314 -3.14645e-10 1.03692e-09 2.20098e-10 -2.90554 0.965183 -0.102902 -3.14653e-10 1.03692e-09 2.20099e-10 -10.2786 0.731801 -0.0259123 -3.14643e-10 1.03692e-09 2.20088e-10 -2.22167 -0.733487 0.20892 -2.03217e-16 0.0 -3.88251e-19 2.01104 -14.3699 0.461714 -0.170503 14.9659 -0.0388357 -0.463106 2.92187 -2.97249 2.03217e-16 0.0 3.88251e-19 0.419628 -5.06269 0.752728 0.174279 16.7264 -0.11223 0.27562 11.2401 3.22367
7.95709 82.3337 184.817 177.538 0.1135 -178.533 -0.329064 2.60909 -4.38098 1.42266 1.56164 -1.07131 1.9344 -7.3214 0.669887 -3.02371 14.3539 2.91568 -0.0 0.0 0.0 -0.0 0.0 0.0 8.40681e-15 -1.68086e-14 -3.58185e-14 45.8668 15.815 -24.1432 -22.5201 -20.2418 30.7381 -0.00495239 3.98632 0.560231 1.99367e-10 -3.36436e-10 -1.13122e-10 3.44994e-10 -5.81546e-10 -1.97153e-10 1.99371e-10 -3.36439e-10 -1.1314e-10 7.73091 5.47488 0.417314 1.99368e-10 -3.36442e-10 -1.13119e-10 2.90554 0.965183 0.102902 1.99371e-10 -3.3644e-10 -1.13125e-10 10.2786 0.731801 0.0259123 1.99362e-10 -3.36437e-10 -1.13115e-10 2.22167 -0.733487 -0.20892 8.39108e-15 -1.68139e-14 -3.61974e-14 -43.531 31.2628 6.06694 29.655 -31.7622 -35.7097 0.0478462 13.1422 -1.84355 -7.37987e-10 2.16589e-09 4.60085e-10 -1.26668e-09 3.76913e-09 8.08937e-10 -7.37989e-10 2.16588e-09 4.60086e-10 -7.73091 5.47488 -0.417314 -7.37981e-10 2.16589e-09 4.60078e-10 -2.90554 0.965183 -0.102902 -7.37993e-10 2.16589e-09 4.60083e-10 -10.2786 0.731801 -0.0259123 -7.37983e-10 2.1659e-09 4.60075e-10 -2.22167 -0.733487 0.20892 -2.03217e-16 0.0 -3.88251e-19 2.74622 -23.1069 1.15996 -0.316322 24.8382 -0.151328 -0.166354 5.46607 -6.16677 2.03217e-16 0.0 3.88251e-19 0.322849 -8.28381 1.5361 0.504307 36.4592 -0.366896 -0.884119 18.8528 6.98332
8.23888 81.7213 183.445 177.774 0.4193 -178.944 -0.894303 3.86159 -6.36242 1.9213 2.28653 -1.57403 2.87085 -10.6829 0.976428 -4.91532 20.8551 4.37793 -0.0 0.0 0.0 -0.0 0.0 0.0 8.48456e-15 -2.39675e-14 -5.1024e-14 71.3544 20.7383 -36.2754 -25.6778 -24.4924 47.0437 -0.0338146 5.86906 0.827138 2.56083e-10 -4.8311e-10 -1.64282e-10 4.43231e-10 -8.35042e-10 -2.86315e-10 2.56087e-10 -4.83114e-10 -1.64301e-10 7.73091 5.47488 0.417314 2.56085e-10 -4.83118e-10 -1.64279e-10 2.90554 0.965183 0.102902 2.56087e-10 -4.83115e-10 -1.64285e-10 10.2786 0.731801 0.0259123 2.56077e-10 -4.83113e-10 -1.64276e-10 2.22167 -0.733487 -0.20892 8.54941e-15 -2.39752e-14 -5.13913e-14 -66.589 45.1937 10.7601 29.6018 -36.1216 -58.2615 0.368688 19.1632 -2.77296 -1.09663e-09 3.11141e-09 6.62237e-10 -1.88263e-09 5.41484e-09 1.16438e-09 -1.09663e-09 3.11139e-09 6.62237e-10 -7.73091 5.47488 -0.417314 -1.09662e-09 3.1114e-09 6.62228e-10 -2.90554 0.965183 -0.102902 -1.09664e-09 3.11141e-09 6.62235e-10 -10.2786 0.731801 -0.0259123 -1.09663e-09 3.11141e-09 6.6223e-10 -2.22167 -0.733487 0.20892 -2.03217e-16 0.0 -3.88251e-19 3.69676 -30.8202 1.87454 -0.408289 33.7746 -0.265187 0.315309 7.53212 -9.11706 2.03217e-16 0.0 3.88251e-19 0.418821 -11.3389 2.27786 1.06713 54.334 -0.804593 -2.84808 25.3792 10.8009
